<?xml version="1.0" encoding="utf-8"?>
<!-- Generator: Adobe Illustrator 27.7.0, SVG Export Plug-In . SVG Version: 6.00 Build 0)  -->
<svg version="1.1" id="Layer_1" xmlns="http://www.w3.org/2000/svg" xmlns:xlink="http://www.w3.org/1999/xlink" x="0px" y="0px"
	 viewBox="0 0 630 350" style="enable-background:new 0 0 630 350;" xml:space="preserve">
<style type="text/css">
	.st0{fill:black;}
	@media (prefers-color-scheme: dark) {
            .st0 { fill: white; }
	}
</style>
<path class="st0" d="M604,255.9c-70.4,47.4-151.1,13.2-215.3-3c-63.7-17.3-147-33.7-252.7,61.7c84.5-46.6,162.4-9.6,234.8,9.3
	C434.9,340,529.8,337.9,604,255.9"/>
<path class="st0" d="M414.5,247.8l-0.1,0.2c104.7,34.2,205.5,22.1,195.9-53.2C586.3,271,412.5,247.4,414.5,247.8"/>
<path class="st0" d="M557.4,103.9c0-24.3-11.7-37.2-45.9-37.2h-7l-18.7,107.7H505C539.3,174.5,557.4,149.6,557.4,103.9 M500.7,223
	h-81.1l36-204.8h58.8c67,0,102.4,25.5,102.4,80.5C616.8,171.8,581.7,223,500.7,223 M431.4,67.6h-56.8L347.1,223h-57.6L317,67.6
	h-55.9l8.8-49.4h170.3L431.4,67.6L431.4,67.6z M183.8,119.7l-69,103.2L83.7,118.2c-2,15.8-5,35.7-8.5,55.9L66.4,223H13.2L49.5,18.2
	h51.3l31.9,103l68.7-103h52.4L217.4,223h-53.3l8.8-48.9C176.5,154,180,135.5,183.8,119.7"/>
</svg>
